# xmcd
#
# Track frame offsets:
#	150
#	14953
#	24943
#	37996
#	63382
#	76363
#	90864
#	103684
#	114612
#	125709
#	138258
#	153350
#
# Disc length: 2349 seconds
#
# Revision: 1
# Processed by: cddbd v1.5.2PL0 Copyright (c) Steve Scherf et al.
# Submitted via: audiograbber 1.83.01
#
DISCID=94092b0c
DTITLE=Demon's Claws - Satan's Little Pet Pig
DYEAR=2007
DGENRE=garage punk
TTITLE0=Shadow Of A Castle
TTITLE1=Satan's Little Pet Pig
TTITLE2=1000 Rounds
TTITLE3=That Old Outlaw
TTITLE4=Wrong Side Of Town
TTITLE5=Gun To My Head
TTITLE6=Get Together
TTITLE7=Unemployment
TTITLE8=Cecile LeMay
TTITLE9=Tomcat
TTITLE10=Hunting On The 49
TTITLE11=Behind The Barn
EXTD=
EXTT0=
EXTT1=
EXTT2=
EXTT3=
EXTT4=
EXTT5=
EXTT6=
EXTT7=
EXTT8=
EXTT9=
EXTT10=
EXTT11=
PLAYORDER=
